
 Street Kings 2008 2011 Blu-ray Movies

----------------------------------------------------------------------------

Street Kings 1 2008

Storyline:
Tom Ludlow is a veteran LAPD cop who finds life difficult to navigate after the death of his wife. When evidence implicates him in the execution of a fellow officer, he is forced to go up against the cop culture he's been a part of his entire career, ultimately leading him to question the loyalties of everyone around him.

More Movie info:  http://www.imdb.com/title/tt0421073/

Genre                            : Action | Crime | Drama
Star Actors                      : Keanu Reeves, Forest Whitaker and Hugh Laurie
Source                           : Blu-ray 1080p
Container                        : Mp4
Format                           : MPEG-4
Format profile                   : Base Media / Version 2
Codec ID                         : mp42
File size                        : 1.95 GiB
Duration                         : 1h 48mn
Overall bit rate                 : 2 564 Kbps
Encoded date                     : UTC 2011-04-17 02:28:11
Tagged date                      : UTC 2011-04-17 04:09:48
Writing application              : HandBrake 0.9.5 2011010300

Video
ID                               : 1
Format                           : AVC
Format/Info                      : Advanced Video Codec
Format profile                   : High@L3.1
Format settings, CABAC           : Yes
Format settings, ReFrames        : 6 frames
Format settings, GOP             : M=1, N=55
Codec ID                         : avc1
Codec ID/Info                    : Advanced Video Coding
Duration                         : 1h 48mn
Bit rate mode                    : Variable
Bit rate                         : 2 200 Kbps
Width                            : 1 280 pixels
Height                           : 528 pixels
Display aspect ratio             : 2.40:1
Frame rate mode                  : Variable
Frame rate                       : 23.976 fps
Minimum frame rate               : 23.968 fps
Maximum frame rate               : 23.981 fps
Color space                      : YUV
Chroma subsampling               : 4:2:0
Bit depth                        : 8 bits
Scan type                        : Progressive
Bits/(Pixel*Frame)               : 0.136
Stream size                      : 1.65 GiB (85%)
Writing library                  : x264 core 112
Encoding settings                : cabac=1 / ref=6 / deblock=1:0:0 / analyse=0x3:0x113 / me=hex / subme=9 / psy=1 / psy_rd=1.00:0.00 / mixed_ref=0 / me_range=16 / chroma_me=1 / trellis=1 / 8x8dct=1 / cqm=0 / deadzone=21,11 / fast_pskip=1 / chroma_qp_offset=-2 / threads=9 / sliced_threads=0 / nr=0 / decimate=1 / interlaced=0 / constrained_intra=0 / bframes=5 / b_pyramid=2 / b_adapt=2 / b_bias=0 / direct=1 / weightb=0 / open_gop=0 / weightp=2 / keyint=240 / keyint_min=23 / scenecut=40 / intra_refresh=0 / rc_lookahead=40 / rc=abr / mbtree=1 / bitrate=2200 / ratetol=1.0 / qcomp=0.60 / qpmin=3 / qpmax=51 / qpstep=4 / ip_ratio=1.40 / aq=1:1.00
Color primaries                  : BT.709-5, BT.1361, IEC 61966-2-4, SMPTE RP177
Transfer characteristics         : BT.709-5, BT.1361
Matrix coefficients              : BT.709-5, BT.1361, IEC 61966-2-4 709, SMPTE RP177

Audio
ID                               : 2
Format                           : AAC
Format/Info                      : Advanced Audio Codec
Format profile                   : LC
Codec ID                         : 40
Duration                         : 1h 48mn
Bit rate mode                    : Variable
Bit rate                         : 384 Kbps
Maximum bit rate                 : 722 Kbps
Channel(s)                       : 6 channels
Channel positions                : Front: L C R, Side: L R, LFE
Sampling rate                    : 48.0 KHz
Compression mode                 : Lossy
Stream size                      : 299 MiB (15%)
Language                         : English

Subtitles: English (.srt file)

----------------------------------------------------------------

Street Kings 2 2011 Motor city

Storyline:
Motor City moves the action to Michigan and explores the world of dirty cops on the violent streets of Detroit. Marty Kingston (Liotta) is an undercover narcotics detective who is shot and barely survives a drug bust gone wrong to save the life of his partner. When his partner is killed by a masked gunman four years later, Marty must team up with the hotheaded homicide detective Dan Sullivan (Hatosy) to investigate a string of brutal cop murders and hunt down the cop killer. The investigation that ensues is shrouded in deception and loaded with plot twists that question the line between the rules of law and justice..

More Movie info:  http://www.imdb.com/title/tt1707687/

Genre                            : Action | Crime | Drama
Star Actors                      : Ray Liotta, Linda Boston and Ele Bardha
Source                           : Bluray
Container                        : Mp4
Format                           : MPEG-4
Format profile                   : Base Media / Version 2
Codec ID                         : mp42
File size                        : 1.65 GiB
Duration                         : 1h 32mn
Overall bit rate                 : 2 550 Kbps
Encoded date                     : UTC 2011-04-17 04:10:00
Tagged date                      : UTC 2011-04-17 05:42:50
Writing application              : HandBrake 0.9.5 2011010300

Video
ID                               : 1
Format                           : AVC
Format/Info                      : Advanced Video Codec
Format profile                   : High@L4.0
Format settings, CABAC           : Yes
Format settings, ReFrames        : 6 frames
Codec ID                         : avc1
Codec ID/Info                    : Advanced Video Coding
Duration                         : 1h 32mn
Bit rate mode                    : Variable
Bit rate                         : 2 200 Kbps
Width                            : 1 280 pixels
Height                           : 720 pixels
Display aspect ratio             : 16:9
Frame rate mode                  : Variable
Frame rate                       : 23.976 fps
Minimum frame rate               : 23.968 fps
Maximum frame rate               : 23.981 fps
Color space                      : YUV
Chroma subsampling               : 4:2:0
Bit depth                        : 8 bits
Scan type                        : Progressive
Bits/(Pixel*Frame)               : 0.100
Stream size                      : 1.39 GiB (85%)
Writing library                  : x264 core 112
Encoding settings                : cabac=1 / ref=6 / deblock=1:0:0 / analyse=0x3:0x113 / me=hex / subme=9 / psy=1 / psy_rd=1.00:0.00 / mixed_ref=0 / me_range=16 / chroma_me=1 / trellis=1 / 8x8dct=1 / cqm=0 / deadzone=21,11 / fast_pskip=1 / chroma_qp_offset=-2 / threads=9 / sliced_threads=0 / nr=0 / decimate=1 / interlaced=0 / constrained_intra=0 / bframes=5 / b_pyramid=2 / b_adapt=2 / b_bias=0 / direct=1 / weightb=0 / open_gop=0 / weightp=2 / keyint=240 / keyint_min=23 / scenecut=40 / intra_refresh=0 / rc_lookahead=40 / rc=abr / mbtree=1 / bitrate=2200 / ratetol=1.0 / qcomp=0.60 / qpmin=3 / qpmax=51 / qpstep=4 / ip_ratio=1.40 / aq=1:1.00
Color primaries                  : BT.709-5, BT.1361, IEC 61966-2-4, SMPTE RP177
Transfer characteristics         : BT.709-5, BT.1361
Matrix coefficients              : BT.709-5, BT.1361, IEC 61966-2-4 709, SMPTE RP177

Audio
ID                               : 2
Format                           : AAC
Format/Info                      : Advanced Audio Codec
Format profile                   : LC
Codec ID                         : 40
Duration                         : 1h 32mn
Bit rate mode                    : Variable
Bit rate                         : 384 Kbps
Maximum bit rate                 : 699 Kbps
Channel(s)                       : 6 channels
Channel positions                : Front: L C R, Side: L R, LFE
Sampling rate                    : 48.0 KHz
Compression mode                 : Lossy
Stream size                      : 253 MiB (15%)
Language                         : English

Subtitles: English (.srt file)

---------------------------------------------------------------

More Subtitles: 
http://www.sub-titles.net 
http://subscene.com/

Movie samples included in torrent.

My torrents:  
http://thepiratebay.org/user/PetaFOX
